<svg clip-rule="evenodd" fill-rule="evenodd" viewBox="0 0 739 739" xmlns="http://www.w3.org/2000/svg"><path d="m380.883 116.244c11.752-15.06-5.593-34.625-19.294-34.631-10.383.998-35.483 16.572-19.294 36.609-23.15 92.232-68.127 165.467-162.269 195.91 11.408 86.159 69.98 145.368 110.818 214.709-5.943 5.62-18.894 11.067-26.963 17.563 1.255 14.692 4.133 28.303 19.047 33.888l-26.715 36.61s-19.243-3.273-25.376 2.618c-3.929 3.775-2.328 16.181-2.328 16.181l-39.578 37.599h341.358l-33.641-36.609s.936-14.67-3.958-18.8c-6.559-5.534-25.725-.99-25.725-.99l-26.715-40.567c10.524-5.122 21.274-9.933 21.52-29.188-7.82-7.56-17.284-11.802-24.489-17.316 36.301-69.759 95.294-129.707 100.923-212.73-76.496-45.082-138.53-103.314-157.321-200.856z" stroke="#000" stroke-width="25"/><g stroke="#fff"><path d="m316.785 575.37h91.653" fill="none" stroke-width="8.31"/><path d="m286.644 625.044h149.723" fill="none" stroke-width="8.31"/><circle cx="291.7" cy="355.598" fill="#fff" r="10.334" stroke-linecap="square" stroke-width="25"/><circle cx="424.675" cy="354.308" fill="#fff" r="10.334" stroke-linecap="square" stroke-width="25"/><circle cx="357.284" cy="300.73" fill="#fff" r="10.334" stroke-linecap="square" stroke-width="25"/><circle cx="357.285" cy="470.112" fill="#fff" r="10.334" stroke-linecap="square" stroke-width="25"/><path d="m305.127 349.014h107.155v11.878h-107.413z" fill="#fff" stroke-width="25"/><path d="m361.666 315.842v143.989h-8.763v-144.336z" fill="#fff" stroke-width="25"/></g></svg>