<?xml version="1.0" encoding="UTF-8" standalone="no"?><!DOCTYPE svg PUBLIC "-//W3C//DTD SVG 1.1//EN" "http://www.w3.org/Graphics/SVG/1.1/DTD/svg11.dtd"><svg width="100%" height="100%" viewBox="0 0 739 739" version="1.1" xmlns="http://www.w3.org/2000/svg" xmlns:xlink="http://www.w3.org/1999/xlink" xml:space="preserve" xmlns:serif="http://www.serif.com/" style="fill-rule:evenodd;clip-rule:evenodd;"><g id="g31148"><g id="g31121"><path id="path29814-3" d="M537.073,133.133c-32.334,167.985 -78.685,330.963 47.259,494.409l19.874,5.474l0,40.28l-468.898,-0l-0,-41.313l21.282,-3.87c125.428,-150.542 80.599,-323.811 46.367,-494.98l81.744,0.881l0.516,185.133l41.623,-0.259l-0,-184.874l89.796,-0.782l-0.517,184.358l41.593,0.782l0,-183.842l79.361,-1.397Z" style="stroke:#1f1a17;stroke-opacity:0;stroke-width:25px;"/><circle id="path29816-5" cx="371.306" cy="108.345" r="22.206" style="fill:url(#_Linear1);stroke:#000;stroke-width:25px;stroke-linecap:square;"/></g><g id="g34127"><circle id="path29818-2" cx="303.269" cy="469.444" r="10.334" style="fill:#fff;stroke:#fff;stroke-width:25px;stroke-linecap:square;"/><circle id="path29818-3-6" cx="436.245" cy="468.153" r="10.334" style="fill:#fff;stroke:#fff;stroke-width:25px;stroke-linecap:square;"/><circle id="path29818-9-6" cx="368.853" cy="414.576" r="10.334" style="fill:#fff;stroke:#fff;stroke-width:25px;stroke-linecap:square;"/><circle id="path29818-99-3" cx="368.854" cy="583.957" r="10.334" style="fill:#fff;stroke:#fff;stroke-width:25px;stroke-linecap:square;"/><path id="path29847-7" d="M316.696,462.859l107.155,0l0,11.878l-107.413,-0l0.258,-11.878Z" style="fill:#fff;stroke:#fff;stroke-width:25px;"/><path id="path29847-3-1" d="M373.235,429.688l0,143.988l-8.763,-0l-0,-144.335l8.763,0.347Z" style="fill:#fff;stroke:#fff;stroke-width:25px;"/></g></g><defs><linearGradient id="_Linear1" x1="0" y1="0" x2="1" y2="0" gradientUnits="userSpaceOnUse" gradientTransform="matrix(-582.151,32.039,-32.039,-582.151,935.991,347.679)"><stop offset="0" style="stop-color:#000;stop-opacity:1"/><stop offset="1" style="stop-color:#000;stop-opacity:0"/></linearGradient></defs></svg>